<?xml version="1.0" encoding="utf-8"?>
<!-- Generator: Adobe Illustrator 15.0.1, SVG Export Plug-In . SVG Version: 6.00 Build 0)  -->
<!DOCTYPE svg PUBLIC "-//W3C//DTD SVG 1.1//EN" "http://www.w3.org/Graphics/SVG/1.1/DTD/svg11.dtd">
<svg version="1.1" xmlns="http://www.w3.org/2000/svg" xmlns:xlink="http://www.w3.org/1999/xlink" x="0px" y="0px"
	 width="283.46px" height="283.46px" viewBox="0 0 283.46 283.46" enable-background="new 0 0 283.46 283.46" xml:space="preserve">
<g id="Layer_1">
	<g>
		<path fill="#FFFFFF" stroke="#000000" stroke-width="0.25" stroke-miterlimit="10" d="M-36.932,27.286
			c0,0,1.827-26.719,10.338-39.182C-18.084-24.357,0-36.682,0-36.682s18.179,10.693,27.319,23.998
			c9.142,13.305,9.612,39.97,9.612,39.97s-17.7,9.253-36.853,9.394C-19.072,36.82-36.932,27.286-36.932,27.286z"/>
		<path fill="#FFFFFF" stroke="#000000" stroke-width="0.25" stroke-miterlimit="10" d="M-27.776-9.79
			c0,0,17.381-9.701,28.595-9.458c11.213,0.244,26.225,6.507,26.225,6.507s0.715,15.659-3.862,26.749
			C18.604,25.1,2.188,36.208,2.188,36.208s-12.943-7.27-20.8-19.139C-26.469,5.2-27.776-9.79-27.776-9.79z"/>
		<path fill="#FFFFFF" stroke="#000000" stroke-width="0.25" stroke-miterlimit="10" d="M-18.731,15.967
			c0,0,1.006-14.711,5.691-21.572c4.686-6.862,14.643-13.646,14.643-13.646s10.009,5.887,15.04,13.213
			c5.033,7.325,5.294,22.006,5.294,22.006S12.19,21.06,1.646,21.139C-8.898,21.216-18.731,15.967-18.731,15.967z"/>
		<path fill="#FFFFFF" stroke="#000000" stroke-width="0.25" stroke-miterlimit="10" d="M-13.308-4.392
			c0,0,9.517-5.311,15.655-5.178c6.14,0.133,14.358,3.562,14.358,3.562s0.392,8.573-2.115,14.645
			C12.086,14.71,3.098,20.792,3.098,20.792s-7.086-3.98-11.388-10.479C-12.592,3.815-13.308-4.392-13.308-4.392z"/>
	</g>
</g>
<g id="Layer_2">
</g>
</svg>
