<?xml version="1.0" encoding="utf-8"?>
<!-- Generator: Adobe Illustrator 15.1.0, SVG Export Plug-In . SVG Version: 6.00 Build 0)  -->
<!DOCTYPE svg PUBLIC "-//W3C//DTD SVG 1.1//EN" "http://www.w3.org/Graphics/SVG/1.1/DTD/svg11.dtd">
<svg version="1.1" id="Layer_1" xmlns="http://www.w3.org/2000/svg" xmlns:xlink="http://www.w3.org/1999/xlink" x="0px" y="0px"
	 width="612px" height="792px" viewBox="0 0 612 792" enable-background="new 0 0 612 792" xml:space="preserve">
<g>
	<g>
		<path d="M-13.794-20.233c-2.203,1.985-4.047,1.864-4.179,5.326c-0.011,0.283,0.153,0.413,0.402,0.506
			c3.71,1.396,8.304,1.111,9.145-3.51c0.372-2.047-0.244-4.265-1.105-6.104c-0.533-1.138-1.812-3.57-3.263-3.688
			c-2.48-0.201-4.779,3.627-5.428,5.545c-1.605,4.742,2.972,6.429,6.872,6.795c0.862,0.081,2.011-1.154,0.703-1.277
			c-3.458-0.325-7.143-1.789-5.57-5.842c0.438-1.127,1.168-2.141,1.978-3.027c0.327-0.358,0.687-0.678,1.091-0.946
			c-0.275,0.182-1.078-0.486-0.148,0.388c0.298,0.28,0.553,0.603,0.807,0.921c1.823,2.282,2.976,6.143,1.657,8.907
			c-0.947,1.985-3.331,1.407-4.996,0.864c-1.301-0.424,1.111-2.729,1.571-2.961c0.764-0.384,1.42-0.861,2.053-1.432
			C-11.333-20.553-13.233-20.739-13.794-20.233L-13.794-20.233z"/>
	</g>
</g>
<g>
	<g>
		<path d="M12.036-32.873c-2.459,5.607-1.429,12.566,5.904,11.971c5.403-0.438,10.77-5.501,11.345-10.805
			c1.339-12.328-16.735-13.071-19.47-2.167c-1.146,4.567,3.994,7.79,7.902,6.811c5.475-1.371,4.531-9.598,2.803-13.301
			c-4.072-8.728-18.982-15.562-25.417-5.645c-0.475,0.731,1.463,0.523,1.792,0.017c5.036-7.761,14.973-2.246,19.587,2.991
			c2.289,2.598,3.597,5.927,3.517,9.385c-0.125,5.354-5.678,7.283-7.997,2.098c-2.549-5.699,6.011-10.568,10.559-8.582
			c2.765,1.207,4.266,4.253,4.739,7.059c0.732,4.341-2.361,7.828-5.895,9.775c-8.674,4.781-9.854-4.361-7.442-9.861
			C14.214-33.697,12.303-33.481,12.036-32.873L12.036-32.873z"/>
	</g>
</g>
<g>
	<g>
		<path d="M-30.966,18.259c21.602,41.812,91.519,11.376,80.932-32.518c-0.053-0.219-0.407-0.24-0.576-0.237
			c-5.3,0.098-11.001,0.79-15.153,4.379c-0.846,0.732,1.007,0.523,1.349,0.351c6.214-3.139,12.327-6.545,19.267-7.758
			c0.867-0.151,1.636-1.188,0.295-0.953c-7.465,1.305-14.039,4.86-20.733,8.242c0.45,0.117,0.899,0.233,1.349,0.351
			c1.945-1.683,11.78-6.316,12.748-1.752c0.501,2.363,0.675,4.781,0.703,7.191c0.056,4.852-1.14,9.65-2.997,14.102
			c-3.965,9.501-11.962,16.942-20.842,21.837C6.021,42.163-18.439,38.249-29.034,17.741C-29.346,17.137-31.21,17.786-30.966,18.259
			L-30.966,18.259z"/>
	</g>
</g>
<rect x="28.338" y="69" fill="#FFF200" stroke="#000000" stroke-miterlimit="10" width="42.662" height="42.662"/>
</svg>
